<svg xmlns="http://www.w3.org/2000/svg" viewBox="0 0 21.67 18.56"><defs><style>.cls-1,.cls-2{fill:#0071bc;stroke-miterlimit:10;stroke-width:3px;}.cls-1{stroke:#00559d;}.cls-2{stroke:#0071bc;}</style></defs><title>資產 1</title><g id="圖層_2" data-name="圖層 2"><g id="圖層_1-2" data-name="圖層 1"><path class="cls-1" d="M10.94,16.4a9.93,9.93,0,0,1,.91-4.15C13.31,8.8,16.91,6.43,22,8.57c4.24,1.8,6.29,5.89,4.38,10.39a8,8,0,0,1-2,3l-.72-.68a7.5,7.5,0,0,0,1.88-2.71c1.63-3.85.12-7.26-4-9C17.63,8,14.2,9.12,12.58,12.94a8.24,8.24,0,0,0-.7,3.51Z" transform="translate(-6.91 -6.26)"/><path class="cls-2" d="M24.58,15.16a10,10,0,0,1-1.18,4.08c-1.69,3.35-5.45,5.47-10.36,3C8.93,20.16,7.16,16,9.36,11.58a8.14,8.14,0,0,1,2.23-2.91l.66.74A7.49,7.49,0,0,0,10.2,12c-1.88,3.73-.6,7.23,3.38,9.24,3.76,1.9,7.26,1,9.13-2.73a8,8,0,0,0,.93-3.45Z" transform="translate(-6.91 -6.26)"/></g></g></svg>